<?xml version="1.0" encoding="utf-8"?>
<!-- Generator: Adobe Illustrator 23.0.3, SVG Export Plug-In . SVG Version: 6.00 Build 0)  -->
<svg version="1.1" id="Layer_1" xmlns="http://www.w3.org/2000/svg" xmlns:xlink="http://www.w3.org/1999/xlink" x="0px" y="0px"
	 viewBox="0 0 183.2 211.9" style="enable-background:new 0 0 183.2 211.9;" xml:space="preserve">
<style type="text/css">
	.st0{fill:none;stroke:#F26B3C;stroke-width:10;stroke-miterlimit:10;}
	.st1{fill:#F26B3C;}
	.st2{fill:none;stroke:#F26B3C;stroke-width:8;stroke-miterlimit:10;}
</style>
<title>Logo</title>
<g>
	<g id="Layer_2-2">
		<polygon id="Background" class="st0" points="5,55.6 91.6,5.8 178.2,56.1 178.2,156.5 91.6,206.1 5.1,156.5 		"/>
		<polygon class="st1" points="55.9,100.9 66.6,111.6 56.1,122 52.7,118.6 59.8,111.6 52.6,104.4 		"/>
		<rect x="71.4" y="116.4" class="st1" width="20.9" height="4.1"/>
		<rect x="82.4" y="83.8" class="st1" width="48.5" height="5.2"/>
		<rect x="72.6" y="83.8" class="st1" width="4.9" height="5.2"/>
		<rect x="62.8" y="83.6" class="st1" width="4.9" height="5.2"/>
		<rect x="53.1" y="83.6" class="st1" width="4.9" height="5.2"/>
		<path id="console_background" class="st2" d="M47.4,67.2h88.3c2.1,0,3.9,1.7,3.9,3.9v70.5c0,2.1-1.7,3.9-3.9,3.9H47.4
			c-2.1,0-3.9-1.7-3.9-3.9V71.1C43.6,68.9,45.3,67.2,47.4,67.2z"/>
	</g>
</g>
</svg>
